<?xml version="1.0" encoding="utf-8"?>
<!-- Generator: Adobe Illustrator 29.8.2, SVG Export Plug-In . SVG Version: 9.03 Build 0)  -->
<svg version="1.0" id="Layer_1" xmlns="http://www.w3.org/2000/svg" xmlns:xlink="http://www.w3.org/1999/xlink" x="0px" y="0px"
	 viewBox="0 0 1673.35 536" style="enable-background:new 0 0 1673.35 536;" xml:space="preserve">
<g transform="translate(0.000000,536.000000) scale(0.100000,-0.100000)">
	<path d="M2643.85,4693.01c41-21,49-51,25-85c-26-34-63-52-211-101c0,0-77.87-37.93-123-41c-26.99-1.83-76.17,19.37-100.96,38.94
		c-39.95,31.54-51.52,73.04-51.04,91.06c1.02,22.06,21.6,52.24,54.96,67.41c96.52,37.17,120.04,53.59,270.04,48.59
		C2577.85,4710.01,2623.85,4703.01,2643.85,4693.01z"/>
	<path d="M4058.85,4473.01c143-69,189-109,212-189c26-91,6-133-89-183c-54-28-55-28-135-17c-93,14-210,60-263,103
		c-44,37-88,121-88,170c0,44,29,75,128,137c47,30,73.04,26.33,91.04,23.33C3929.89,4515.34,3995.85,4503.01,4058.85,4473.01z"/>
	<path d="M3060.85,4447.01c171-25,283-70,349-140c105-112,56-226-122-284c-128-41-300-79-335-72c-62,12-323,94-382,120
		c-120,54-171,137-131,214c38,73,144,134,269,157C2796.85,4458.01,2965.85,4460.01,3060.85,4447.01z"/>
	<path d="M2160.85,4337.01c24-22,26-31,22-73c-5-58-31-93-145-194l-80-72l61-5c34-3,143-10,242-15c327-19,492-64,650-176
		c114-81,201-195,246-325c31-88,38-260,15-362c-40-180-127-330-275-479c-223-222-521-350-853-366c-272-13-545,68-706,210
		c-112,100-165,192-217,377c-4,14-10,107-14,208l-6,183l-60-52c-74-63-153-101-223-107c-49-4-54-3-86,31c-51,54-63,111-43,205
		c35,160,143,321,277,410c76,51,117,59,174,34c62-28,86-81,86-191c0-45,4-81,9-79c11,4,499,402,497,405c-1,1-29-4-61-12
		c-110-26-200-17-266,28c-38,25-44,43-34,94c12,67,153,192,295,263c140,70,224,89,372,87
		C2125.85,4362.01,2136.85,4360.01,2160.85,4337.01z"/>
	<path d="M1303.76,4167.45c7-26,4.22-63.39-3.78-72.39c-10.75-42.46-9.62-210.16-308.13-210.04c-81.05-0.11-55,99-56,134
		c0,47,38,74,190,137c70.6,17.3,137.03,36.87,141.03,36.87S1298.76,4187.45,1303.76,4167.45z"/>
	<path d="M3819.85,3929.01c91-33,163-80,240-158c76-75,122-145,164-246c23-54,26-78,27-168c0-101-2-108-35-175
		c-65-129-184-195-354-195c-199,0-373,97-485,269c-79,123-110,250-91,373c23,151,97,249,228,305c50,21,69,23,152,20
		C3729.85,3951.01,3779.85,3943.01,3819.85,3929.01z"/>
	<path d="M504.85,3223.01l33-34l-11-64c-23-132-113-258-184-258c-45,0-87,44-94,98c-10,78,56,207,138,267
		C432.85,3267.01,464.85,3264.01,504.85,3223.01z"/>
	<path d="M910.85,2853.01c85-40,136-104,245-313c58-110,52.99-106.11,52.99-148.43c-5.49-35.51-17.53-64.69-26.41-94.89
		c-50.46-96.33-83.58-180.67-188.58-215.67c-128-42-248,19-357,181c-73,110-94,172-94,280c-1,70,4,103,21,146c28,70,93,146,147,170
		C767.85,2884.01,848.85,2882.01,910.85,2853.01z"/>
	<path d="M3605.85,2786.01c140-22,258-109,294-215c60-177-48-436-263-636c-80-74-156-122-251-160c-112-44-166-53-320-53
		c-139,0-148,1-208,29c-175,81-225,272-133,517c90,239,376,460,666,514C3478.85,2799.01,3524.85,2800.01,3605.85,2786.01z"/>
	<path d="M4738.85,2597.01c119-45,179-130,179-255c0-65-4-85-36-152c-89-186-319-325-514-310c-91,7-203,63-245,124
		c-41,57-55,97-56,154c-3,166,142,356,327,428C4506.85,2631.01,4637.85,2635.01,4738.85,2597.01z"/>
	<path d="M2016.85,2188.01c215-56,367-160,407-280c15-41,15-124,2-171c-41-147-218-252-449-267c-53-3-116-2.67-126.43-1.91
		c-33.02,2.39-139.57,9.91-316.57,65.91c-217,69-306,167-308,339c-1,181,137,286,438,334
		C1749.85,2221.01,1929.85,2211.01,2016.85,2188.01z"/>
	<path d="M658.85,2019.01c57-31,96-88,151-224c0,3.02,11.7-61.01,10.46-91.15c-0.85-20.58-19.46-79.85-19.46-79.85
		c-57-95-80-111-140-105c-68,8-131,51-176,121c-96,148-90,293,16,386c32,27,41,31,73,25
		C593.85,2048.01,632.85,2033.01,658.85,2019.01z"/>
	<path d="M2624.85,1353.01c147-42,216-104,228-206c7-64-29-142-87-189c-51-41-136.09-105.24-270.07-129.72c0,0-42.1-9.1-113.19-9.1
		c-74.35,0-117.74,5.83-117.74,5.83c-154.22,26.46-195,60-240,105c-117,118-81,266,89,366
		C2268.85,1387.01,2440.85,1407.01,2624.85,1353.01z"/>
</g>
<g>
	<path d="M665.02,202.77c-0.65-7.16-3.53-12.74-8.64-16.75s-12.39-6.01-21.83-6.01c-6.25,0-11.46,0.81-15.62,2.44
		c-4.17,1.63-7.29,3.86-9.38,6.69s-3.16,6.07-3.22,9.72c-0.13,3,0.47,5.63,1.81,7.91c1.33,2.28,3.29,4.28,5.86,6.01
		c2.57,1.73,5.68,3.24,9.33,4.54c3.65,1.3,7.75,2.44,12.3,3.42l17.19,3.91c9.9,2.15,18.64,5.01,26.22,8.59
		c7.58,3.58,13.96,7.85,19.14,12.79c5.18,4.95,9.1,10.64,11.77,17.09c2.67,6.44,4.04,13.67,4.1,21.68
		c-0.06,12.63-3.26,23.47-9.57,32.52c-6.31,9.05-15.38,15.98-27.2,20.8s-26.06,7.23-42.72,7.23c-16.73,0-31.31-2.51-43.75-7.52
		s-22.1-12.63-29-22.85c-6.9-10.22-10.45-23.14-10.64-38.77h46.29c0.39,6.45,2.12,11.82,5.18,16.11s7.28,7.55,12.65,9.77
		c5.37,2.21,11.61,3.32,18.7,3.32c6.51,0,12.06-0.88,16.65-2.64s8.12-4.2,10.6-7.32s3.74-6.7,3.81-10.74
		c-0.06-3.77-1.24-7.01-3.52-9.72c-2.28-2.7-5.78-5.04-10.5-7.03c-4.72-1.99-10.73-3.82-18.02-5.52l-20.9-4.88
		c-17.32-3.97-30.96-10.4-40.92-19.29c-9.96-8.89-14.91-20.91-14.84-36.08c-0.07-12.37,3.25-23.21,9.96-32.52
		c6.71-9.31,15.98-16.57,27.83-21.78c11.85-5.21,25.36-7.81,40.53-7.81c15.49,0,28.96,2.62,40.38,7.86
		c11.43,5.24,20.3,12.58,26.61,22.02c6.31,9.44,9.54,20.38,9.67,32.81H665.02z"/>
	<path d="M754.01,399.05c-5.73,0-11.13-0.44-16.21-1.32s-9.44-2.04-13.09-3.47l10.55-34.67c4.69,1.56,8.94,2.47,12.74,2.73
		c3.81,0.26,7.1-0.34,9.86-1.81c2.77-1.46,4.9-4.05,6.4-7.76l1.86-4.49L712.8,192.81h50l27.64,107.03H792l28.03-107.03h50.29
		l-56.54,164.35c-2.73,8.2-6.59,15.45-11.57,21.73s-11.39,11.21-19.24,14.79C775.12,397.26,765.47,399.05,754.01,399.05z"/>
	<path d="M922.58,257.26v85.55h-47.75v-150h45.41v27.54h1.66c3.32-9.18,8.98-16.39,16.99-21.63c8.01-5.24,17.54-7.86,28.61-7.86
		c10.55,0,19.71,2.36,27.49,7.08c7.78,4.72,13.83,11.3,18.16,19.73c4.33,8.43,6.46,18.28,6.4,29.54v95.6H971.8v-86.23
		c0.06-8.33-2.04-14.84-6.3-19.53c-4.26-4.69-10.17-7.03-17.72-7.03c-5.01,0-9.42,1.09-13.23,3.27c-3.81,2.18-6.74,5.29-8.79,9.33
		C923.7,246.65,922.65,251.53,922.58,257.26z"/>
	<path d="M1077.78,345.34c-9.57,0-18.05-1.61-25.44-4.83c-7.39-3.22-13.22-8.11-17.48-14.65c-4.26-6.54-6.4-14.76-6.4-24.66
		c0-8.33,1.46-15.36,4.39-21.09c2.93-5.73,6.97-10.38,12.11-13.96c5.14-3.58,11.07-6.3,17.77-8.15c6.71-1.86,13.87-3.11,21.48-3.76
		c8.53-0.78,15.4-1.61,20.61-2.49c5.21-0.88,9-2.15,11.38-3.81c2.38-1.66,3.56-4.02,3.56-7.08v-0.49c0-5.01-1.73-8.89-5.18-11.62
		c-3.45-2.73-8.11-4.1-13.96-4.1c-6.32,0-11.39,1.37-15.23,4.1c-3.84,2.73-6.28,6.51-7.32,11.33l-44.04-1.56
		c1.3-9.11,4.67-17.27,10.11-24.46c5.44-7.19,12.92-12.86,22.46-16.99c9.54-4.13,21.01-6.2,34.42-6.2c9.57,0,18.39,1.12,26.46,3.37
		c8.07,2.25,15.1,5.5,21.09,9.77c5.99,4.26,10.63,9.49,13.92,15.67c3.29,6.19,4.93,13.25,4.93,21.19V342.8h-44.92v-20.9h-1.17
		c-2.67,5.08-6.07,9.38-10.21,12.89c-4.13,3.52-8.98,6.15-14.55,7.91S1084.74,345.34,1077.78,345.34z M1092.52,314.09
		c5.14,0,9.78-1.04,13.92-3.12c4.13-2.08,7.44-4.96,9.91-8.64c2.47-3.68,3.71-7.96,3.71-12.84v-14.26
		c-1.37,0.72-3.01,1.37-4.93,1.95c-1.92,0.59-4.02,1.14-6.3,1.66c-2.28,0.52-4.62,0.98-7.03,1.37c-2.41,0.39-4.72,0.75-6.93,1.07
		c-4.49,0.72-8.32,1.82-11.47,3.32c-3.16,1.5-5.57,3.43-7.23,5.81c-1.66,2.38-2.49,5.19-2.49,8.45c0,4.95,1.77,8.73,5.32,11.33
		C1082.54,312.79,1087.05,314.09,1092.52,314.09z"/>
	<path d="M1182.77,399.05V192.81h47.27v25.68h1.46c1.95-4.56,4.74-8.95,8.35-13.18c3.61-4.23,8.24-7.7,13.87-10.4
		c5.63-2.7,12.39-4.05,20.26-4.05c10.42,0,20.17,2.73,29.25,8.2s16.42,13.9,22.02,25.29c5.6,11.39,8.4,25.91,8.4,43.55
		c0,16.99-2.69,31.22-8.06,42.68c-5.37,11.46-12.6,20.05-21.68,25.78c-9.08,5.73-19.16,8.59-30.22,8.59
		c-7.55,0-14.1-1.24-19.63-3.71c-5.53-2.47-10.17-5.73-13.92-9.77c-3.74-4.04-6.62-8.36-8.64-12.99h-0.98v80.57H1182.77z
		 M1229.55,267.81c0,8.07,1.09,15.1,3.27,21.09c2.18,5.99,5.34,10.63,9.47,13.92c4.13,3.29,9.1,4.93,14.89,4.93
		c5.86,0,10.84-1.64,14.94-4.93c4.1-3.29,7.21-7.92,9.33-13.92c2.12-5.99,3.17-13.02,3.17-21.09c0-8.07-1.06-15.07-3.17-21
		c-2.12-5.92-5.21-10.51-9.28-13.77c-4.07-3.25-9.07-4.88-14.99-4.88c-5.86,0-10.84,1.6-14.94,4.79c-4.1,3.19-7.24,7.75-9.42,13.67
		C1230.64,252.54,1229.55,259.6,1229.55,267.81z"/>
	<path d="M1475.95,238.61l-43.85,1.17c-0.46-3.12-1.69-5.91-3.71-8.35c-2.02-2.44-4.64-4.36-7.86-5.76c-3.22-1.4-6.95-2.1-11.18-2.1
		c-5.53,0-10.24,1.11-14.11,3.32c-3.87,2.21-5.78,5.21-5.71,8.98c-0.07,2.93,1.12,5.47,3.56,7.62s6.82,3.87,13.13,5.18l28.91,5.47
		c14.97,2.87,26.12,7.62,33.45,14.26c7.32,6.64,11.02,15.43,11.08,26.37c-0.07,10.29-3.11,19.24-9.13,26.86
		c-6.02,7.62-14.24,13.53-24.66,17.72c-10.42,4.2-22.33,6.3-35.74,6.3c-21.42,0-38.3-4.41-50.63-13.23
		c-12.34-8.82-19.38-20.65-21.14-35.5l47.17-1.17c1.04,5.47,3.74,9.64,8.11,12.5c4.36,2.87,9.93,4.3,16.7,4.3
		c6.12,0,11.1-1.14,14.94-3.42c3.84-2.28,5.79-5.31,5.86-9.08c-0.07-3.38-1.56-6.1-4.49-8.15s-7.52-3.66-13.77-4.83l-26.17-4.98
		c-15.04-2.73-26.24-7.8-33.59-15.19c-7.36-7.39-11-16.81-10.94-28.27c-0.07-10.02,2.6-18.6,8.01-25.73
		c5.4-7.13,13.09-12.58,23.05-16.36c9.96-3.77,21.71-5.66,35.25-5.66c20.31,0,36.33,4.25,48.05,12.74S1474.72,223.76,1475.95,238.61
		z"/>
	<path d="M1559.47,345.64c-15.69,0-29.22-3.11-40.58-9.33c-11.36-6.22-20.08-15.1-26.17-26.66c-6.09-11.56-9.13-25.31-9.13-41.26
		c0-15.49,3.06-29.05,9.18-40.67c6.12-11.62,14.75-20.67,25.88-27.15c11.13-6.48,24.25-9.72,39.36-9.72
		c10.68,0,20.44,1.66,29.3,4.98c8.85,3.32,16.5,8.24,22.95,14.75c6.45,6.51,11.46,14.54,15.04,24.07
		c3.58,9.54,5.37,20.46,5.37,32.76v11.91h-130.37v-27.73h85.94c-0.07-5.08-1.27-9.6-3.61-13.57c-2.34-3.97-5.55-7.08-9.62-9.33
		c-4.07-2.25-8.74-3.37-14.01-3.37c-5.34,0-10.12,1.19-14.36,3.56c-4.23,2.38-7.58,5.6-10.06,9.67c-2.47,4.07-3.78,8.68-3.91,13.82
		v28.22c0,6.12,1.2,11.47,3.61,16.06c2.41,4.59,5.83,8.15,10.25,10.69c4.43,2.54,9.7,3.81,15.82,3.81c4.23,0,8.07-0.59,11.52-1.76
		c3.45-1.17,6.41-2.9,8.89-5.18c2.47-2.28,4.33-5.08,5.57-8.4l43.85,1.27c-1.82,9.83-5.81,18.38-11.96,25.63
		c-6.15,7.26-14.21,12.89-24.17,16.89S1572.55,345.64,1559.47,345.64z"/>
</g>
</svg>
