<?xml version="1.0" encoding="utf-8"?>
<!-- Generator: Adobe Illustrator 29.8.2, SVG Export Plug-In . SVG Version: 9.03 Build 0)  -->
<svg version="1.0" id="Layer_1" xmlns="http://www.w3.org/2000/svg" xmlns:xlink="http://www.w3.org/1999/xlink" x="0px" y="0px"
	 viewBox="0 0 522.91 425.74" style="enable-background:new 0 0 522.91 425.74;" xml:space="preserve">
<g transform="translate(0.000000,536.000000) scale(0.100000,-0.100000)">
	<path d="M2643.85,5148.23c41-21,49-51,25-85c-26-34-63-52-211-101c0,0-77.87-37.93-123-41c-26.99-1.83-76.17,19.37-100.96,38.94
		c-39.95,31.54-51.52,73.04-51.04,91.06c1.02,22.06,21.6,52.24,54.96,67.41c96.52,37.17,120.04,53.59,270.04,48.59
		C2577.85,5165.23,2623.85,5158.23,2643.85,5148.23z"/>
	<path d="M4058.85,4928.23c143-69,189-109,212-189c26-91,6-133-89-183c-54-28-55-28-135-17c-93,14-210,60-263,103
		c-44,37-88,121-88,170c0,44,29,75,128,137c47,30,73.04,26.33,91.04,23.33C3929.89,4970.55,3995.85,4958.23,4058.85,4928.23z"/>
	<path d="M3060.85,4902.23c171-25,283-70,349-140c105-112,56-226-122-284c-128-41-300-79-335-72c-62,12-323,94-382,120
		c-120,54-171,137-131,214c38,73,144,134,269,157C2796.85,4913.23,2965.85,4915.23,3060.85,4902.23z"/>
	<path d="M2160.85,4792.23c24-22,26-31,22-73c-5-58-31-93-145-194l-80-72l61-5c34-3,143-10,242-15c327-19,492-64,650-176
		c114-81,201-195,246-325c31-88,38-260,15-362c-40-180-127-330-275-479c-223-222-521-350-853-366c-272-13-545,68-706,210
		c-112,100-165,192-217,377c-4,14-10,107-14,208l-6,183l-60-52c-74-63-153-101-223-107c-49-4-54-3-86,31c-51,54-63,111-43,205
		c35,160,143,321,277,410c76,51,117,59,174,34c62-28,86-81,86-191c0-45,4-81,9-79c11,4,499,402,497,405c-1,1-29-4-61-12
		c-110-26-200-17-266,28c-38,25-44,43-34,94c12,67,153,192,295,263c140,70,224,89,372,87
		C2125.85,4817.23,2136.85,4815.23,2160.85,4792.23z"/>
	<path d="M1303.76,4622.66c7-26,4.22-63.39-3.78-72.39c-10.75-42.46-9.62-210.16-308.13-210.04c-81.05-0.11-55,99-56,134
		c0,47,38,74,190,137c70.6,17.3,137.03,36.87,141.03,36.87S1298.76,4642.66,1303.76,4622.66z"/>
	<path d="M3819.85,4384.23c91-33,163-80,240-158c76-75,122-145,164-246c23-54,26-78,27-168c0-101-2-108-35-175
		c-65-129-184-195-354-195c-199,0-373,97-485,269c-79,123-110,250-91,373c23,151,97,249,228,305c50,21,69,23,152,20
		C3729.85,4406.23,3779.85,4398.23,3819.85,4384.23z"/>
	<path d="M504.85,3678.23l33-34l-11-64c-23-132-113-258-184-258c-45,0-87,44-94,98c-10,78,56,207,138,267
		C432.85,3722.23,464.85,3719.23,504.85,3678.23z"/>
	<path d="M910.85,3308.23c85-40,136-104,245-313c58-110,52.99-106.11,52.99-148.43c-5.49-35.51-17.53-64.69-26.41-94.89
		c-50.46-96.33-83.58-180.67-188.58-215.67c-128-42-248,19-357,181c-73,110-94,172-94,280c-1,70,4,103,21,146c28,70,93,146,147,170
		C767.85,3339.23,848.85,3337.23,910.85,3308.23z"/>
	<path d="M3605.85,3241.23c140-22,258-109,294-215c60-177-48-436-263-636c-80-74-156-122-251-160c-112-44-166-53-320-53
		c-139,0-148,1-208,29c-175,81-225,272-133,517c90,239,376,460,666,514C3478.85,3254.23,3524.85,3255.23,3605.85,3241.23z"/>
	<path d="M4738.85,3052.23c119-45,179-130,179-255c0-65-4-85-36-152c-89-186-319-325-514-310c-91,7-203,63-245,124
		c-41,57-55,97-56,154c-3,166,142,356,327,428C4506.85,3086.23,4637.85,3090.23,4738.85,3052.23z"/>
	<path d="M2016.85,2643.23c215-56,367-160,407-280c15-41,15-124,2-171c-41-147-218-252-449-267c-53-3-116-2.67-126.43-1.91
		c-33.02,2.39-139.57,9.91-316.57,65.91c-217,69-306,167-308,339c-1,181,137,286,438,334
		C1749.85,2676.23,1929.85,2666.23,2016.85,2643.23z"/>
	<path d="M658.85,2474.23c57-31,96-88,151-224c0,3.02,11.7-61.01,10.46-91.15c-0.85-20.58-19.46-79.85-19.46-79.85
		c-57-95-80-111-140-105c-68,8-131,51-176,121c-96,148-90,293,16,386c32,27,41,31,73,25
		C593.85,2503.23,632.85,2488.23,658.85,2474.23z"/>
	<path d="M2624.85,1808.23c147-42,216-104,228-206c7-64-29-142-87-189c-51-41-136.09-105.24-270.07-129.72c0,0-42.1-9.1-113.19-9.1
		c-74.35,0-117.74,5.83-117.74,5.83c-154.22,26.46-195,60-240,105c-117,118-81,266,89,366
		C2268.85,1842.23,2440.85,1862.23,2624.85,1808.23z"/>
</g>
</svg>
